<svg viewBox="0 0 512 512" xml:space="preserve" xmlns="http://www.w3.org/2000/svg"><path d="M412.95 381.15c-8.05 10.119-16.94 19.33-26.55 27.54a196.717 196.717 0 0 1-6.92 5.64l-.78.63c-.09.07-.19.13-.28.2-5.979 4.6-12.2 8.83-18.64 12.689a209.01 209.01 0 0 1-5.811 3.37 196.39 196.39 0 0 1-58.42 21.16 200.97 200.97 0 0 1-37.66 3.55c-27.92 0-54.94-5.739-80.32-17.04-7.74-3.46-15.3-7.43-22.47-11.81-6.96-4.24-13.77-9-20.24-14.14-5.28-4.19-10.3-8.62-15.07-13.25-1.3-1.261-2.57-2.54-3.82-3.83-30.43-31.21-49.57-71.37-54.6-115.38-4.54-39.75 2.83-79.04 20.95-113.75a199.593 199.593 0 0 1 17.41-27.561c.2-.26.4-.529.6-.79.9-1.18 1.81-2.359 2.74-3.529 37.77-47.521 94.29-74.78 155.07-74.78 45.101 0 87.641 14.87 123.021 42.99 1.54 1.22 2.89 2.33 4.14 3.39 3.16 2.64 6.29 5.43 9.51 8.5.49.47.99.94 1.471 1.43 1.3 1.25 2.58 2.54 3.84 3.83 32.41 33.351 51.979 77.011 55.31 123.75 3.539 49.551-11.551 98.271-42.481 137.191z" fill="#474747" opacity=".9" class="fill-6a6d68"></path><path d="M408.95 377.15c-8.05 10.119-16.94 19.33-26.55 27.54a196.717 196.717 0 0 1-6.92 5.64l-.78.63c-.09.07-.19.13-.28.2-5.979 4.6-12.2 8.83-18.64 12.689a209.01 209.01 0 0 1-5.811 3.37c-19.76 10.96-41.359 18.471-63.979 22.141a201.023 201.023 0 0 1-32.101 2.569c-27.92 0-54.94-5.739-80.32-17.04-7.74-3.46-15.3-7.43-22.47-11.81-6.96-4.24-13.77-9-20.24-14.14a203.135 203.135 0 0 1-14.89-13.08c-.06-.051-.12-.11-.18-.17-32.64-31.721-53.18-73.381-58.42-119.21-4.54-39.75 2.83-79.04 20.95-113.75a199.593 199.593 0 0 1 17.41-27.561c1.09-1.449 2.2-2.89 3.34-4.319.55-.69 1.1-1.37 1.65-2.051 37.76-46.25 93.52-72.729 153.42-72.729 45.101 0 87.641 14.87 123.021 42.99 1.54 1.22 2.89 2.33 4.14 3.39 3.16 2.64 6.29 5.43 9.51 8.5 1.811 1.72 3.58 3.48 5.311 5.26.05.061.11.11.16.17 32.319 33.33 51.83 76.92 55.149 123.58 3.54 49.551-11.55 98.271-42.48 137.191z" fill="#ffee00" class="fill-a3aaa0"></path><circle cx="285" cy="156" fill="#666865" r="44.5" stroke="#404040" stroke-miterlimit="10" stroke-width="4" class="fill-666865 stroke-5e5e5d"></circle><circle cx="385" cy="300" fill="#666865" r="21.5" stroke="#404040" stroke-miterlimit="10" stroke-width="4" class="fill-666865 stroke-5e5e5d"></circle><circle cx="166" cy="296.5" fill="#666865" r="27.84" stroke="#404040" stroke-miterlimit="10" stroke-width="4" class="fill-666865 stroke-5e5e5d"></circle><circle cx="261.25" cy="272.75" fill="#666865" r="14.75" stroke="#404040" stroke-miterlimit="10" stroke-width="4" class="fill-666865 stroke-5e5e5d"></circle><circle cx="151.5" cy="184" fill="#666865" r="28" stroke="#404040" stroke-miterlimit="10" stroke-width="4" class="fill-666865 stroke-5e5e5d"></circle><circle cx="297.5" cy="382.501" fill="#666865" r="27.5" stroke="#404040" stroke-miterlimit="10" stroke-width="4" class="fill-666865 stroke-5e5e5d"></circle><circle cx="395" cy="213" fill="#666865" r="18.5" stroke="#404040" stroke-miterlimit="10" stroke-width="4" class="fill-666865 stroke-5e5e5d"></circle><circle cx="317" cy="216" fill="#666865" r="8" stroke="#404040" stroke-miterlimit="10" stroke-width="4" class="fill-666865 stroke-5e5e5d"></circle><path d="M299.55 450.38a200.97 200.97 0 0 1-37.66 3.55c-27.92 0-54.94-5.739-80.32-17.04-7.74-3.46-15.3-7.43-22.47-11.81-6.96-4.24-13.77-9-20.24-14.14-5.28-4.19-10.3-8.62-15.07-13.25-1.3-1.261-2.57-2.54-3.82-3.83-.06-.051-.12-.11-.18-.17-32.64-31.721-53.18-73.381-58.42-119.21-4.54-39.75 2.83-79.04 20.95-113.75a199.593 199.593 0 0 1 17.41-27.561c1.09-1.449 2.2-2.89 3.34-4.319.55-.69 1.1-1.37 1.65-2.051-.16 3.011-.29 6.2-.39 9.58-2.39 79.15 12.97 253.43 185.661 310.98a278.673 278.673 0 0 0 9.559 3.021z" fill="#666865" opacity=".2" stroke="#404040" stroke-miterlimit="10" stroke-width="4" class="fill-666865 stroke-5e5e5d"></path></svg>